#N canvas 86 83 1090 583 10;
#X declare -lib mrpeach;
#X obj 11 8 declare -lib mrpeach;
#X msg 696 503 close;
#X floatatom 135 96 5 0 0 0 - - -, f 5;
#X floatatom 100 96 5 0 0 0 - - -, f 5;
#X obj 79 96 tgl 15 0 empty empty empty 17 7 0 10 -262144 -1 -1 0 1
;
#X obj 455 551 packOSC;
#X obj 51 96 bng 15 250 50 0 empty empty empty 17 7 0 10 -262144 -1
-1;
#X obj 423 676 bng 15 250 50 0 empty empty empty 17 7 0 10 -262144
-1 -1;
#X obj 370 675 print;
#X obj 456 675 unpackOSC;
#X obj 303 464 print;
#X obj 390 743 print;
#X obj 437 743 unpack f f f;
#X obj 437 791 s x;
#X obj 471 791 s y;
#X obj 506 791 s state;
#X obj 51 68 r state;
#X obj 51 127 pack b f f f;
#X obj 530 612 comport;
#X obj 456 640 mrpeach/slipdec 65536;
#X obj 455 575 mrpeach/slipenc 65536;
#X obj 707 670 print error;
#X floatatom 107 188 5 0 15 0 - - -, f 5;
#X obj 79 188 tgl 15 0 empty empty empty 17 7 0 10 -262144 -1 -1 0
1;
#X obj 227 96 tgl 15 0 empty empty empty 17 7 0 10 -262144 -1 -1 1
1;
#X msg 745 503 ports;
#X obj 613 670 print portlist;
#X obj 613 640 route ports error;
#X msg 644 33 /size;
#X obj 437 711 routeOSC /key /size;
#X obj 571 743 unpack f f;
#X floatatom 571 766 5 0 0 0 - - -, f 5;
#X floatatom 628 766 5 0 0 0 - - -, f 5;
#X msg 790 33 /key pos;
#X msg 850 33 /key index;
#X msg 922 33 /start;
#X msg 693 455 devicename /dev/ttyACM0 \, baud 115200 \, pollintervall
10 \, verbose 0;
#X obj 51 188 bng 15 250 50 0 empty empty empty 17 7 0 10 -262144 -1
-1;
#X msg 51 157 /led/set/one \$2 \$3 \$4;
#X obj 135 68 r y;
#X obj 100 68 r x;
#X floatatom 122 284 5 0 15 0 - - -, f 5;
#X obj 55 284 bng 15 250 50 0 empty empty empty 17 7 0 10 -262144 -1
-1;
#X floatatom 83 284 5 0 3 0 - - -, f 5;
#X floatatom 122 384 5 0 15 0 - - -, f 5;
#X obj 55 384 bng 15 250 50 0 empty empty empty 17 7 0 10 -262144 -1
-1;
#X floatatom 83 384 5 0 63 0 - - -, f 5;
#X obj 52 217 pack b f f;
#X msg 50 248 /led/set/one \$2 \$3;
#X obj 55 313 pack b f f;
#X msg 53 344 /led/int/one \$2 \$3;
#X obj 55 411 pack b f f;
#X msg 55 439 /led/rgb/one \$2 \$3;
#X msg 227 127 /led/set/all \$1;
#X text 49 41 one led;
#X text 19 94 set;
#X text 19 284 int;
#X text 19 384 RGB;
#X text 224 41 all leds;
#X obj 227 286 bng 15 250 50 0 empty empty empty 17 7 0 10 -262144
-1 -1;
#X obj 227 313 pack b f;
#X floatatom 272 286 5 0 3 0 - - -, f 5;
#X msg 227 344 /led/int/all \$2;
#X obj 571 791 s sizeX;
#X obj 628 791 s sizeY;
#X floatatom 695 33 5 0 0 0 - - -, f 5;
#X floatatom 749 33 5 0 0 0 - - -, f 5;
#X obj 695 7 r sizeX;
#X obj 749 7 r sizeY;
#X text 732 33 x;
#X obj 227 384 bng 15 250 50 0 empty empty empty 17 7 0 10 -262144
-1 -1;
#X floatatom 272 384 5 0 63 0 - - -, f 5;
#X obj 227 413 pack b f;
#X msg 227 439 /led/rgb/all \$2;
#X msg -91 383 63;
#X msg -40 383 15;
#X obj -91 439 random;
#X obj -40 439 random;
#X obj -91 338 tgl 15 0 empty empty empty 17 7 0 10 -262144 -1 -1 1
1;
#X obj -91 359 metro 250;
#X obj -91 409 t b;
#X floatatom -40 338 5 0 0 0 - - -, f 5;
#X text 368 39 row;
#X obj 389 64 bng 15 250 50 0 empty empty empty 17 7 0 10 -262144 -1
-1;
#X obj 446 19 vradio 15 0 0 4 empty empty empty 0 -8 0 10 -262144 -1
-1 3;
#X obj 417 64 tgl 15 0 empty empty empty 17 7 0 10 -262144 -1 -1 0
1;
#X obj 389 87 pack b f f;
#X obj 389 175 bng 15 250 50 0 empty empty empty 17 7 0 10 -262144
-1 -1;
#X obj 446 130 vradio 15 0 0 4 empty empty empty 0 -8 0 10 -262144
-1 -1 1;
#X obj 417 175 tgl 15 0 empty empty empty 17 7 0 10 -262144 -1 -1 0
1;
#X obj 389 198 pack b f f f f;
#X floatatom 468 175 5 0 3 0 - - -, f 5;
#X floatatom 509 175 5 0 3 0 - - -, f 5;
#X msg 389 220 /led/set/row \$2 \$3 \$4 \$5;
#X obj 389 289 bng 15 250 50 0 empty empty empty 17 7 0 10 -262144
-1 -1;
#X obj 454 245 vradio 15 0 0 4 empty empty empty 0 -8 0 10 -262144
-1 -1 1;
#X obj 389 312 pack b f f;
#X floatatom 417 289 5 0 3 0 - - -, f 5;
#X msg 389 334 /led/int/row \$2 \$3;
#X obj 389 400 bng 15 250 50 0 empty empty empty 17 7 0 10 -262144
-1 -1;
#X obj 454 356 vradio 15 0 0 4 empty empty empty 0 -8 0 10 -262144
-1 -1 1;
#X obj 389 423 pack b f f;
#X floatatom 417 400 5 0 63 0 - - -, f 5;
#X msg 389 445 /led/rgb/row \$2 \$3;
#X msg 389 109 /led/set/row \$2 \$3;
#X obj 789 235 bng 15 250 50 0 empty empty empty 17 7 0 10 -262144
-1 -1;
#X obj 808 235 tgl 15 0 empty empty empty 17 7 0 10 -262144 -1 -1 0
1;
#X floatatom 827 235 5 0 3 0 - - -, f 5;
#X floatatom 863 235 5 0 3 0 - - -, f 5;
#X floatatom 899 235 5 0 3 0 - - -, f 5;
#X floatatom 935 235 5 0 3 0 - - -, f 5;
#X obj 789 264 pack b f f f f f;
#X msg 789 289 /led/set/map \$2 \$3 \$4 \$5 \$6;
#X text 789 212 map;
#X connect 1 0 18 0;
#X connect 2 0 17 3;
#X connect 3 0 17 2;
#X connect 4 0 17 1;
#X connect 5 0 20 0;
#X connect 6 0 17 0;
#X connect 9 0 29 0;
#X connect 12 0 13 0;
#X connect 12 1 14 0;
#X connect 12 2 15 0;
#X connect 16 0 4 0;
#X connect 17 0 38 0;
#X connect 18 0 19 0;
#X connect 18 1 27 0;
#X connect 19 0 9 0;
#X connect 19 0 7 0;
#X connect 20 0 18 0;
#X connect 22 0 47 2;
#X connect 23 0 47 1;
#X connect 24 0 53 0;
#X connect 25 0 18 0;
#X connect 27 0 26 0;
#X connect 27 1 21 0;
#X connect 28 0 5 0;
#X connect 29 0 12 0;
#X connect 29 1 30 0;
#X connect 30 0 31 0;
#X connect 30 1 32 0;
#X connect 31 0 63 0;
#X connect 32 0 64 0;
#X connect 33 0 5 0;
#X connect 34 0 5 0;
#X connect 35 0 5 0;
#X connect 36 0 18 0;
#X connect 37 0 47 0;
#X connect 38 0 5 0;
#X connect 39 0 2 0;
#X connect 40 0 3 0;
#X connect 40 0 6 0;
#X connect 41 0 49 2;
#X connect 42 0 49 0;
#X connect 43 0 49 1;
#X connect 44 0 51 2;
#X connect 45 0 51 0;
#X connect 46 0 51 1;
#X connect 47 0 48 0;
#X connect 48 0 5 0;
#X connect 49 0 50 0;
#X connect 50 0 5 0;
#X connect 51 0 52 0;
#X connect 52 0 5 0;
#X connect 53 0 5 0;
#X connect 59 0 60 0;
#X connect 60 0 62 0;
#X connect 61 0 60 1;
#X connect 62 0 5 0;
#X connect 67 0 65 0;
#X connect 68 0 66 0;
#X connect 70 0 72 0;
#X connect 71 0 72 1;
#X connect 72 0 73 0;
#X connect 73 0 5 0;
#X connect 74 0 76 1;
#X connect 74 0 80 0;
#X connect 75 0 77 1;
#X connect 76 0 46 0;
#X connect 77 0 44 0;
#X connect 78 0 79 0;
#X connect 79 0 74 0;
#X connect 79 0 75 0;
#X connect 79 0 45 0;
#X connect 80 0 76 0;
#X connect 80 0 77 0;
#X connect 81 0 79 1;
#X connect 83 0 86 0;
#X connect 84 0 86 2;
#X connect 85 0 86 1;
#X connect 86 0 104 0;
#X connect 87 0 90 0;
#X connect 88 0 90 2;
#X connect 89 0 90 1;
#X connect 90 0 93 0;
#X connect 91 0 90 3;
#X connect 92 0 90 4;
#X connect 93 0 5 0;
#X connect 94 0 96 0;
#X connect 95 0 96 2;
#X connect 96 0 98 0;
#X connect 97 0 96 1;
#X connect 98 0 5 0;
#X connect 99 0 101 0;
#X connect 100 0 101 2;
#X connect 101 0 103 0;
#X connect 102 0 101 1;
#X connect 103 0 5 0;
#X connect 104 0 5 0;
#X connect 105 0 111 0;
#X connect 106 0 111 1;
#X connect 107 0 111 2;
#X connect 108 0 111 3;
#X connect 109 0 111 4;
#X connect 110 0 111 5;
#X connect 111 0 112 0;
#X connect 112 0 5 0;
