#N canvas 165 131 798 588 10;
#X declare -lib mrpeach;
#X obj 281 185 packOSC;
#X obj 282 309 unpackOSC;
#X obj 356 246 comport;
#X obj 282 274 mrpeach/slipdec 65536;
#X obj 281 209 mrpeach/slipenc 65536;
#X obj 438 273 print error;
#X msg 418 57 close;
#X msg 415 10 devicename /dev/ttyACM0 \, baud 115200 \, pollintervall
1 \, verbose 1;
#X obj 282 337 routeOSC /key;
#X obj 236 363 print;
#X obj 282 362 unpack f f f;
#X floatatom 188 121 5 0 15 0 - - -, f 5;
#X obj 3 2 declare -lib mrpeach;
#X obj 56 54 tgl 15 0 empty empty empty 17 7 0 10 -262144 -1 -1 1 1
;
#X floatatom 104 55 5 0 0 0 - - -, f 5;
#X msg 234 120 1;
#X msg 188 153 /led/set \$1 1;
#X msg 100 219 /led/set \$1 0;
#X obj 19 128 bng 15 250 50 0 empty empty empty 17 7 0 10 -262144 -1
-1;
#X obj 55 119 f;
#X obj 89 119 + 1;
#X obj 89 148 select 16;
#X msg 77 180 0;
#X obj 316 411 * 4;
#X obj 286 467 +;
#X obj 351 386 select 1;
#X obj 286 544 s index;
#X obj 174 20 r index;
#X msg 296 48 /led/all 0;
#X obj 48 205 f;
#X obj 286 442 pack f f;
#X obj 212 52 t b b;
#X obj 286 493 f;
#X obj 316 386 f;
#X obj 286 386 f;
#X obj 286 518 spigot;
#X msg 392 442 0;
#X msg 353 442 1;
#X obj 56 85 metro 125;
#X connect 0 0 4 0;
#X connect 1 0 8 0;
#X connect 2 0 3 0;
#X connect 2 1 5 0;
#X connect 3 0 1 0;
#X connect 4 0 2 0;
#X connect 6 0 2 0;
#X connect 7 0 2 0;
#X connect 8 0 10 0;
#X connect 10 0 34 0;
#X connect 10 1 33 0;
#X connect 10 2 25 0;
#X connect 11 0 16 0;
#X connect 13 0 38 0;
#X connect 14 0 38 1;
#X connect 16 0 0 0;
#X connect 17 0 0 0;
#X connect 19 0 20 0;
#X connect 19 0 29 1;
#X connect 20 0 21 0;
#X connect 21 0 22 0;
#X connect 21 1 19 1;
#X connect 21 1 11 0;
#X connect 22 0 11 0;
#X connect 22 0 19 1;
#X connect 23 0 30 1;
#X connect 24 0 32 0;
#X connect 25 0 37 0;
#X connect 25 1 36 0;
#X connect 27 0 19 1;
#X connect 27 0 11 0;
#X connect 27 0 31 0;
#X connect 28 0 0 0;
#X connect 29 0 17 0;
#X connect 30 0 24 0;
#X connect 31 0 11 0;
#X connect 31 1 28 0;
#X connect 32 0 35 0;
#X connect 33 0 23 0;
#X connect 34 0 30 0;
#X connect 35 0 26 0;
#X connect 36 0 35 1;
#X connect 37 0 35 1;
#X connect 38 0 18 0;
#X connect 38 0 19 0;
#X connect 38 0 29 0;
